<?xml version="1.0" standalone="no"?>
<!DOCTYPE svg PUBLIC "-//W3C//DTD SVG 20010904//EN"
 "http://www.w3.org/TR/2001/REC-SVG-20010904/DTD/svg10.dtd">
<svg version="1.0" xmlns="http://www.w3.org/2000/svg"
 width="369.000000pt" height="369.000000pt" viewBox="0 0 369.000000 369.000000"
 preserveAspectRatio="xMidYMid meet">
<metadata>
Created by potrace 1.14, written by Peter Selinger 2001-2017
</metadata>
<g transform="translate(0.000000,369.000000) scale(0.100000,-0.100000)"
fill="#000000" stroke="none">
<path d="M60 2058 c-2 -296 0 -440 5 -448 3 -5 23 -7 45 -5 22 2 40 0 40 -5 0
-6 5 -10 11 -10 5 0 8 4 5 9 -8 12 77 8 86 -4 5 -7 8 -6 8 1 0 12 49 12 69 -1
9 -5 12 -4 8 2 -4 7 9 10 36 8 23 -1 47 1 52 4 6 3 24 11 42 17 28 10 31 9 28
-7 -3 -14 2 -17 31 -13 27 3 34 1 28 -8 -5 -9 -2 -9 9 1 14 11 23 12 43 2 15
-6 23 -7 19 -1 -3 5 1 10 9 10 9 0 16 -6 16 -12 0 -8 3 -9 8 -3 10 14 85 17
76 3 -5 -7 -3 -8 7 -2 23 14 72 11 94 -5 18 -15 19 -15 7 0 -11 14 -6 16 43
14 37 -1 52 2 46 9 -4 6 -8 49 -8 96 -1 84 -1 85 13 46 8 -21 11 -42 8 -47 -3
-5 -1 -9 5 -9 6 0 15 -17 21 -39 12 -45 31 -64 55 -55 10 4 21 1 26 -7 5 -8 9
-9 9 -4 0 7 37 10 96 10 89 -1 97 1 111 22 8 12 16 28 17 35 7 36 20 74 27 83
4 6 7 12 7 15 0 20 16 60 24 60 5 0 7 4 4 9 -4 5 -2 20 3 33 5 12 9 25 9 28 0
3 10 30 22 60 12 30 29 76 36 103 8 26 18 47 22 47 4 0 8 14 9 30 l2 30 -139
0 -140 0 -11 -45 c-6 -25 -15 -42 -20 -39 -5 3 -6 -1 -4 -9 3 -7 2 -24 -3 -36
-7 -20 -12 -12 -30 53 l-23 76 -292 -2 c-275 -3 -292 -4 -289 -21 3 -17 2 -17
-30 0 -28 15 -63 19 -220 21 l-188 4 0 -104z m384 42 c23 -11 52 -37 66 -57
l25 -38 3 58 3 57 253 0 253 0 32 -102 c18 -57 35 -112 38 -122 5 -18 6 -18
18 5 6 13 24 68 40 122 l28 97 99 0 c60 0 97 -4 93 -10 -3 -5 -39 -107 -81
-227 -41 -120 -79 -222 -84 -227 -11 -11 -198 -12 -210 0 -4 5 -31 76 -59 158
-29 83 -54 152 -56 155 -3 3 -14 5 -25 6 -19 2 -20 -5 -20 -92 0 -55 4 -93 10
-93 6 0 10 -30 10 -70 0 -60 -3 -70 -17 -71 -22 -1 -305 -1 -315 0 -5 1 -8 22
-8 49 l0 47 -28 -31 c-49 -57 -79 -65 -225 -66 -73 0 -144 0 -159 1 l-28 1 0
235 0 235 152 0 c131 0 157 -3 192 -20z"/>
<path d="M122 1883 l3 -218 147 1 c126 1 151 4 180 21 68 39 78 115 23 170
l-34 34 26 23 c20 18 27 33 29 67 2 48 -11 73 -52 100 -22 14 -52 17 -176 18
l-148 2 2 -218z m225 94 c9 -7 10 -14 2 -29 -8 -15 -19 -18 -47 -16 -32 3 -37
7 -40 30 -3 21 1 27 20 30 26 4 47 0 65 -15z m10 -151 c28 -27 -5 -55 -61 -52
-25 2 -30 7 -33 32 -4 30 -3 30 42 29 25 -1 48 -5 52 -9z"/>
<path d="M559 2058 c-1 -45 -1 -325 0 -368 l1 -25 150 0 150 0 0 55 0 56 -77
-1 -78 0 0 30 c0 30 1 30 55 31 30 1 61 2 68 3 8 1 12 18 12 51 l0 50 -70 0
c-68 0 -70 1 -70 25 0 27 0 27 98 27 l62 -1 0 54 0 55 -150 0 -150 0 -1 -42z"/>
<path d="M940 1933 c32 -93 67 -190 77 -218 l18 -50 89 0 89 -1 15 36 c8 19
43 117 78 218 l63 183 -76 -3 -76 -3 -13 -40 c-7 -22 -27 -87 -45 -145 -24
-79 -34 -99 -40 -85 -15 37 -79 252 -79 263 0 8 -26 12 -79 12 l-79 0 58 -167z"/>
<path d="M517 1945 c-9 -19 -21 -35 -27 -35 -17 0 -10 -24 15 -52 13 -16 26
-28 28 -28 3 0 5 34 5 75 0 41 -1 75 -2 75 -1 0 -10 -16 -19 -35z"/>
<path d="M1559 2123 c-5 -215 0 -508 10 -511 6 -2 8 -9 5 -14 -5 -7 -2 -8 7
-3 20 13 189 13 189 1 0 -7 3 -8 8 -1 10 14 225 14 234 0 5 -6 8 -5 8 3 0 7 5
10 10 7 6 -4 7 -11 4 -17 -4 -7 -2 -8 5 -4 6 4 9 11 7 15 -3 4 27 7 67 6 94
-2 104 1 110 34 5 24 11 28 39 27 27 -1 35 -6 43 -31 l10 -30 128 0 c83 1 127
-3 127 -9 0 -7 3 -8 8 -1 11 15 85 17 75 2 -5 -9 -3 -9 8 -1 8 6 29 11 46 10
35 -1 43 8 44 52 0 27 0 27 11 5 6 -13 15 -23 20 -23 4 0 8 -6 8 -14 0 -20 15
-23 103 -21 48 1 77 -3 77 -9 0 -7 3 -8 8 -1 10 14 52 19 52 6 0 -6 5 -11 11
-11 5 0 8 4 4 10 -8 12 78 8 87 -5 5 -6 8 -6 8 1 0 6 21 10 55 9 53 -2 55 -1
51 21 -6 34 10 30 25 -5 9 -20 16 -26 21 -18 6 9 10 8 18 -3 5 -8 10 -10 10
-4 0 14 42 13 52 -1 5 -7 8 -7 8 0 0 6 18 11 40 12 28 1 38 -2 33 -10 -5 -9
-3 -9 8 -1 8 6 39 10 69 9 68 -2 76 2 54 26 -9 10 -14 19 -9 19 4 0 -3 9 -16
20 -13 10 -21 19 -17 20 4 0 -3 11 -15 24 -12 13 -33 40 -47 60 -14 20 -35 49
-48 64 -12 15 -25 35 -28 44 -4 15 21 58 61 104 30 34 45 55 45 62 0 4 10 18
23 32 12 14 30 37 40 53 l17 27 -155 0 c-144 0 -156 -1 -167 -20 -13 -20 -29
-27 -27 -12 5 31 -1 32 -235 32 l-235 0 3 -40 c2 -22 2 -40 1 -40 -1 0 -15 18
-30 40 l-28 41 -121 -3 c-102 -3 -120 -5 -118 -18 2 -8 3 -33 2 -55 -1 -49 -1
-48 2 -112 3 -56 -2 -57 -21 -3 -7 19 -17 44 -22 55 -5 11 -18 46 -30 78 l-21
58 -125 -3 -125 -3 -27 -68 c-15 -37 -31 -64 -36 -60 -4 4 -5 2 -1 -5 4 -7 4
-22 0 -35 -7 -21 -8 -20 -14 8 -4 17 -9 36 -11 44 -7 26 -43 62 -89 89 -43 26
-51 27 -222 30 l-178 4 -1 -39z m371 -26 c56 -30 81 -64 87 -121 7 -56 -9 -98
-50 -132 l-30 -25 28 -52 c15 -29 31 -56 35 -60 4 -4 33 61 65 145 32 84 68
178 81 208 l22 55 97 0 97 0 60 -161 c57 -152 71 -175 94 -152 3 4 6 77 6 162
l-1 156 88 0 88 0 52 -80 c29 -44 56 -80 60 -80 5 0 7 36 6 80 l-2 80 196 -2
196 -3 1 -55 c0 -30 2 -59 2 -64 1 -5 15 10 32 35 65 96 54 90 168 87 l102 -3
-58 -75 c-31 -41 -69 -91 -84 -111 l-27 -36 90 -122 c67 -91 85 -121 72 -122
-20 -1 -184 -1 -194 0 -4 1 -26 30 -50 66 -24 35 -47 65 -50 65 -4 0 -6 -26
-5 -57 1 -32 1 -62 -1 -68 -3 -8 -271 -12 -370 -6 -6 1 -35 37 -65 81 -29 44
-55 80 -58 80 -3 0 -5 -36 -5 -80 1 -49 -3 -80 -10 -81 -5 0 -83 -1 -172 -1
-170 -1 -193 4 -193 43 0 20 -2 21 -50 21 -74 0 -78 -1 -89 -32 -11 -34 4 -32
-210 -32 -121 -1 -145 2 -153 15 -9 16 -37 13 -49 -6 -4 -5 -46 -10 -93 -11
l-86 -1 0 58 c-1 74 -1 291 0 362 l0 55 143 0 c131 0 148 -2 187 -23z m73
-292 c-3 -9 -8 -14 -10 -11 -3 3 -2 9 2 15 9 16 15 13 8 -4z"/>
<path d="M1620 1882 l0 -219 64 1 c36 1 68 5 72 9 4 4 6 37 5 74 -1 38 1 64 5
60 4 -4 24 -38 44 -75 l36 -67 70 -1 c38 0 72 1 76 3 4 2 -13 38 -37 79 -48
82 -53 94 -31 94 8 0 28 16 45 35 58 66 35 166 -48 209 -18 10 -70 14 -163 15
l-138 2 0 -219z m231 87 c21 -34 2 -55 -51 -54 -33 0 -35 2 -36 36 -2 35 -2
35 38 34 22 -1 44 -8 49 -16z"/>
<path d="M2175 2083 c-34 -87 -155 -407 -155 -412 0 -7 137 -8 143 -1 1 3 8
17 15 33 11 26 14 27 85 27 73 0 73 0 88 -32 14 -33 14 -33 87 -33 61 -1 72 2
67 15 -9 21 -87 228 -126 333 l-32 87 -83 0 c-69 0 -83 -3 -89 -17z m119 -242
c-3 -3 -21 -7 -39 -7 l-33 -2 21 61 20 61 19 -54 c10 -29 15 -56 12 -59z"/>
<path d="M2542 1885 c0 -118 3 -216 6 -216 19 -4 118 -5 127 -2 7 2 10 41 10
102 -1 67 2 98 9 95 6 -3 38 -45 71 -95 33 -50 67 -94 75 -98 12 -6 98 -7 131
-2 3 1 6 98 6 216 l1 215 -72 0 -72 0 1 -97 c1 -54 0 -102 -3 -106 -4 -8 -33
32 -103 141 l-41 62 -73 0 -74 0 1 -215z"/>
<path d="M3040 1882 l0 -218 62 1 c35 0 68 4 74 7 7 5 10 38 9 88 -1 44 1 80
4 80 3 -1 33 -40 66 -88 l61 -87 82 0 c45 0 82 1 82 3 0 3 -36 53 -80 113 -78
105 -88 124 -72 131 4 2 25 28 47 58 22 30 48 64 58 75 47 51 44 55 -42 55
l-80 0 -38 -56 c-21 -30 -46 -65 -55 -76 -10 -12 -18 -25 -18 -30 0 -4 -3 -8
-8 -8 -4 0 -7 33 -7 73 1 39 0 78 -3 85 -3 8 -27 12 -73 12 l-68 0 -1 -218z"/>
<path d="M2149 1573 c-13 -16 -12 -17 4 -4 9 7 17 15 17 17 0 8 -8 3 -21 -13z"/>
</g>
</svg>
