<svg viewBox="0 0 24 24" fill="none" xmlns="http://www.w3.org/2000/svg">
<path d="M14.3477 11.9986L21.5075 4.85447C22.1604 4.20147 22.1604 3.14275 21.5075 2.48975C20.8546 1.83675 19.796 1.83675 19.1431 2.48975L12 9.65051L4.8569 2.48975C4.204 1.83675 3.14543 1.83675 2.49252 2.48975C1.83962 3.14275 1.83962 4.20147 2.49252 4.85447L9.65227 11.9986L2.49252 19.1427C2.1773 19.4554 2 19.881 2 20.3251C2 20.7691 2.1773 21.1947 2.49252 21.5074C2.80516 21.8227 3.23075 22 3.67471 22C4.11868 22 4.54426 21.8227 4.8569 21.5074L12 14.3466L19.1431 21.5074C19.4557 21.8227 19.8813 22 20.3253 22C20.7693 22 21.1948 21.8227 21.5075 21.5074C21.8227 21.1947 22 20.7691 22 20.3251C22 19.881 21.8227 19.4554 21.5075 19.1427L14.3477 11.9986Z" fill="inherit"/>
</svg>
