<svg width="130" height="79" viewBox="0 0 130 79" fill="none" xmlns="http://www.w3.org/2000/svg">
<rect width="130" height="79" fill="url(#paint0_linear_1166_12753)"/>
<mask id="mask0_1166_12753" style="mask-type:alpha" maskUnits="userSpaceOnUse" x="0" y="0" width="131" height="79">
<rect x="0.10614" width="130" height="79" fill="white"/>
</mask>
<g mask="url(#mask0_1166_12753)">
<path fill-rule="evenodd" clip-rule="evenodd" d="M125.734 73.9615C123.149 71.7538 116.677 66.9917 117.838 61.9091C118.999 56.8264 131.487 51.1829 128.117 45.8588C124.747 40.5347 114.324 49.9436 110.305 45.2144C106.286 40.4853 116.74 30.1764 111.706 25.8745C106.672 21.5726 95.3757 38.3967 92.7676 39.4757C90.1594 40.5548 81.9572 46.4423 75.935 44.6649C69.9129 42.8875 51.8725 33.3129 49.9044 38.7201C47.9364 44.1273 59.3417 50.718 57.7007 55.4637C56.0597 60.2094 44.9008 59.214 45.5584 63.4938C46.2161 67.7736 56.8458 66.0606 57.0592 70.9822C57.2726 75.9038 44.1496 81.2544 47.6545 84.8567C51.1593 88.459 130.12 92.0861 128.126 76.9364C127.209 74.8598 128.319 76.1693 125.734 73.9615Z" fill="#C3ECF9"/>
<path fill-rule="evenodd" clip-rule="evenodd" d="M113.866 80.6008C106.255 73.8431 70.3681 79.1661 65.7108 80.9225C61.0535 82.6789 55.5613 84.3182 54.9793 80.5305C54.3973 76.7427 63.2939 73.16 61.9735 69.769C60.6531 66.3781 50.8262 67.0233 51.6084 63.6074C52.3906 60.1915 63.0147 60.3769 63.3288 56.3288C63.6428 52.2806 55.6389 45.3498 58.6755 43.4358C61.7121 41.5217 67.2669 44.5508 69.5445 46.1494C71.8222 47.7481 80.2946 50.421 86.9289 45.9735C93.5632 41.526 105.834 29.0939 107.964 32.1797C110.093 35.2655 102.272 42.8709 106.223 47.3428C110.173 51.8147 121.194 44.4855 122.01 49.7986C122.827 55.1116 111.314 57.6233 112.228 63.5731C113.143 69.5229 118.314 71.1466 122.766 75.9444C125.566 78.9612 116.395 81.5113 113.866 80.6008Z" fill="#84D1E5"/>
<path fill-rule="evenodd" clip-rule="evenodd" d="M91.4795 81.3795C82.8433 82.6687 65.7934 82.0439 64.2375 65.9923C62.6816 49.9406 79.2615 48.1607 87.6682 47.621C96.0749 47.0813 111.24 50.0753 110.464 63.2114C109.688 76.3476 100.116 80.0903 91.4795 81.3795Z" fill="#57C4D3"/>
<g filter="url(#filter0_d_1166_12753)">
<path fill-rule="evenodd" clip-rule="evenodd" d="M78.3789 76.0202C77.1374 76.9408 66.1721 84.7512 63.3714 84.6611C60.5706 84.571 62.1308 80.7922 64.2866 78.1219C66.4424 75.4515 71.263 73.6475 71.9483 70.2496C72.6336 66.8518 79.6204 75.0997 78.3789 76.0202Z" fill="white"/>
<path fill-rule="evenodd" clip-rule="evenodd" d="M101.137 72.1252C106.018 72.1445 115.124 78.6308 118.284 77.3304C121.445 76.0301 118.626 73.5266 115.096 70.7907C111.566 68.0548 106.044 67.7568 105.548 64.5339C105.053 61.311 96.2559 72.1059 101.137 72.1252Z" fill="white"/>
<path fill-rule="evenodd" clip-rule="evenodd" d="M67.0764 59.2078C67.8783 64.4211 73.2023 82.7071 91.1817 79.2147C109.161 75.7222 107.535 59.533 106.849 55.074C106.163 50.615 66.2745 53.9946 67.0764 59.2078Z" fill="white"/>
<path fill-rule="evenodd" clip-rule="evenodd" d="M105.791 46.2136C105.828 54.3714 67.1671 58.2144 65.993 50.5809C64.8188 42.9474 68.2787 5.07067 79.031 3.46714C89.7833 1.86361 105.754 38.0557 105.791 46.2136Z" fill="white"/>
<path fill-rule="evenodd" clip-rule="evenodd" d="M66.303 54.1797C67.1048 59.393 68.8671 77.8261 90.3536 73.8316C111.84 69.8371 107.354 54.4407 106.479 48.7525C106.049 45.9604 102.383 26.0409 82.9489 28.9392C63.5147 31.8375 65.8947 51.5254 66.303 54.1797Z" fill="white"/>
<path fill-rule="evenodd" clip-rule="evenodd" d="M66.8835 58.0092C72.8382 57.2524 98.4517 53.6083 107.036 52.0211C105.968 43.4446 101.695 26.1705 83.1013 28.9165C64.5076 31.6625 65.1126 50.3186 66.8835 58.0092Z" fill="white"/>
</g>
<path fill-rule="evenodd" clip-rule="evenodd" d="M78.3117 76.0716C77.0689 76.994 66.0922 84.8199 63.2886 84.7296C60.485 84.6393 62.0468 80.853 64.2048 78.1774C66.3629 75.5017 71.1884 73.6941 71.8744 70.2895C72.5604 66.8849 79.5545 75.1492 78.3117 76.0716Z" fill="#4D6374"/>
<path fill-rule="evenodd" clip-rule="evenodd" d="M101.127 72.1282C106.013 72.1475 115.129 78.6464 118.292 77.3435C121.456 76.0406 118.634 73.5323 115.101 70.791C111.567 68.0497 106.04 67.7512 105.543 64.522C105.047 61.2928 96.2414 72.1088 101.127 72.1282Z" fill="#4D6374"/>
<path fill-rule="evenodd" clip-rule="evenodd" d="M67.0203 59.2141C67.8231 64.4387 73.1533 82.7646 91.1534 79.2645C109.153 75.7645 107.525 59.5399 106.839 55.0712C106.152 50.6025 66.2175 53.9895 67.0203 59.2141Z" fill="#A5BFBC"/>
<ellipse rx="2.93975" ry="2.92292" transform="matrix(0.989044 -0.147634 0.151894 0.988399 67.4202 32.9225)" fill="black"/>
<ellipse rx="0.528428" ry="0.823809" transform="matrix(0.965458 0.264123 -0.26656 0.962839 65.7693 32.1107)" fill="white"/>
<ellipse rx="2.93975" ry="2.92292" transform="matrix(0.989044 -0.147634 0.151894 0.988399 99.0418 28.0225)" fill="black"/>
<ellipse rx="0.527034" ry="0.824901" transform="matrix(0.887196 -0.459715 0.467289 0.884991 100.675 26.7176)" fill="white"/>
<path fill-rule="evenodd" clip-rule="evenodd" d="M105.809 46.2364C105.846 54.4066 67.1632 58.2554 65.9884 50.6104C64.8136 42.9653 68.2754 5.03093 79.0337 3.42496C89.792 1.819 105.772 38.0661 105.809 46.2364Z" fill="#537687"/>
<path fill-rule="evenodd" clip-rule="evenodd" d="M105.306 49.9436C105.343 58.1136 68.4517 61.6953 67.277 54.0504C66.1022 46.4056 68.8186 8.58382 79.5763 6.97791C90.3341 5.372 105.269 41.7736 105.306 49.9436Z" fill="#7890A0"/>
<path fill-rule="evenodd" clip-rule="evenodd" d="M66.2722 54.1957C67.0746 59.4174 68.8382 77.8806 90.3398 73.8796C111.841 69.8786 107.352 54.4571 106.476 48.7596C106.046 45.963 102.378 26.0111 82.9299 28.9141C63.482 31.8171 65.8636 51.5371 66.2722 54.1957Z" fill="#D7F1F3"/>
<path fill-rule="evenodd" clip-rule="evenodd" d="M66.855 58.0494C72.8166 57.291 98.4599 53.6389 107.054 52.0481C105.985 43.4529 101.707 26.1409 83.0916 28.8929C64.4764 31.6449 65.0821 50.3419 66.855 58.0494Z" fill="#C4E9EB"/>
<ellipse rx="1.18421" ry="2.39706" transform="matrix(0.989037 -0.147684 0.151843 0.988407 73.12 22.7564)" fill="#4D6375"/>
<ellipse rx="1.29536" ry="2.39735" transform="matrix(0.976249 -0.215851 0.220888 0.975483 90.4348 20.1562)" fill="#4D6375"/>
<path fill-rule="evenodd" clip-rule="evenodd" d="M71.5302 30.6787C77.7681 25.5905 87.2725 24.1684 94.6241 27.2234C86.0719 25.415 78.2394 27.0226 71.5302 30.6787Z" fill="#6D8393"/>
<path fill-rule="evenodd" clip-rule="evenodd" d="M72.4873 27.8474C77.9257 23.3846 86.2175 22.144 92.6349 24.8329C85.171 23.2376 78.3382 24.6425 72.4873 27.8474Z" fill="#6D8393"/>
<path fill-rule="evenodd" clip-rule="evenodd" d="M71.2419 55.2877C71.7132 58.3546 75.4696 65.9478 75.4696 65.9478L83.5561 69.0126L95.9924 67.1563L101.115 62.1198L102.513 54.0461L101.297 46.1359L96.7097 38.8199L87.3125 35.9019L77.9221 38.4125L71.2736 44.245L70.7193 51.887C70.7193 51.887 70.7706 52.2208 71.2419 55.2877Z" fill="#573238"/>
<path fill-rule="evenodd" clip-rule="evenodd" d="M73.6033 61.2045L76.1339 60.8265L75.1915 64.2697L78.2363 62.8763L77.875 66.5973L80.5826 63.4643L81.3063 68.1779L83.2025 64.2231L84.9231 67.6376L86.4785 64.1065L88.3668 67.4548L89.5421 63.6488L91.8662 66.932L92.4653 62.8393L95.6559 65.3381L95.5422 61.2294L98.8662 63.4613L97.5428 59.6649L100.855 60.4357L99.2226 57.3772L101.744 57.0005C101.744 57.0005 101.999 63.1667 98.4565 65.6158C94.9139 68.0649 82.6265 69.3401 80.3556 68.6517C78.0847 67.9632 73.8942 64.0428 73.1613 62.4541C72.4283 60.8655 73.6033 61.2045 73.6033 61.2045Z" fill="white"/>
<path fill-rule="evenodd" clip-rule="evenodd" d="M72.7626 57.2613L70.515 57.597C70.515 57.597 73.4238 67.2378 77.4288 68.7575C81.4339 70.2773 84.8003 70.4757 91.3201 69.1515C97.84 67.8272 102.132 65.2496 102.968 59.6463C103.804 54.0429 103.348 52.6938 103.348 52.6938L101.084 53.0319C101.084 53.0319 101.903 60.0608 99.2203 62.9823C96.5377 65.9039 90.977 66.7343 88.0461 67.172C85.1152 67.6097 79.394 68.6276 76.8446 65.4362C74.2951 62.2448 72.7626 57.2613 72.7626 57.2613Z" fill="#DB9B9C"/>
<path fill-rule="evenodd" clip-rule="evenodd" d="M71.2488 53.0608L74.7605 51.7634L71.8063 48.9366L75.0943 48.4456L72.5845 44.5396L77.1369 46.0177L75.4789 41.3819L79.9706 44.1365L79.5834 38.8761L83.4085 42.9232L84.2572 37.5292L86.5251 42.1224L89.199 37.4402L89.9977 42.6392L93.7528 38.6531L93.7319 43.5396L97.4987 41.1922L96.098 45.3092L99.515 44.7989L97.8457 48.3161L100.772 48.6522C100.772 48.6522 102.096 45.6402 100.267 43.1596C98.4376 40.6789 94.6642 36.8329 90.3963 36.6125C86.1285 36.392 78.9486 37.078 76.1193 39.3934C73.29 41.7088 70.0571 45.3029 70.4127 47.6177C70.7683 49.9325 71.2488 53.0608 71.2488 53.0608Z" fill="white"/>
<path fill-rule="evenodd" clip-rule="evenodd" d="M101.101 53.0638L103.396 52.7213C103.396 52.7213 102.336 43.5111 100.427 41.0404C98.5188 38.5697 93.9881 34.0627 84.0744 35.5428C74.1607 37.0228 70.234 42.8909 69.6995 46.7649C69.1649 50.6389 70.5374 57.6269 70.5374 57.6269L72.7846 57.2914C72.7846 57.2914 70.3048 46.3484 74.3291 42.7037C76.376 40.8498 79.5636 38.6813 83.5398 37.9363C87.3806 37.2167 91.9965 37.8636 94.8305 39.2764C100.598 42.1518 101.101 53.0638 101.101 53.0638Z" fill="#CF767A"/>
<path fill-rule="evenodd" clip-rule="evenodd" d="M52.7407 52.6083C52.7407 52.6083 43.4119 45.7465 42.157 48.8622C40.9022 51.9778 52.7407 52.6083 52.7407 52.6083Z" fill="#C3ECF9"/>
<path fill-rule="evenodd" clip-rule="evenodd" d="M49.0705 56.0513C49.0705 56.0513 41.7501 54.5268 42.596 57.0183C43.4419 59.5097 49.0705 56.0513 49.0705 56.0513Z" fill="#C3ECF9"/>
<path fill-rule="evenodd" clip-rule="evenodd" d="M62.3027 35.9367C62.3027 35.9367 57.5234 26.4996 55.1139 29.5869C52.7044 32.6741 62.3027 35.9367 62.3027 35.9367Z" fill="#C3ECF9"/>
<path fill-rule="evenodd" clip-rule="evenodd" d="M106.001 22.3998C106.001 22.3998 106.875 16.6221 109.52 17.1448C112.165 17.6676 106.001 22.3998 106.001 22.3998Z" fill="#C3ECF9"/>
<path fill-rule="evenodd" clip-rule="evenodd" d="M115.856 36.4441C115.856 36.4441 116.828 31.2528 119.811 31.6099C122.794 31.967 115.856 36.4441 115.856 36.4441Z" fill="#C3ECF9"/>
<path fill-rule="evenodd" clip-rule="evenodd" d="M114.757 41.5446C114.757 41.5446 121.202 35.397 123.429 38.3976C125.655 41.3981 114.757 41.5446 114.757 41.5446Z" fill="#C3ECF9"/>
<path fill-rule="evenodd" clip-rule="evenodd" d="M121 60.3324C121 60.3324 125.626 57.03 127.194 59.0685C128.762 61.1071 121 60.3324 121 60.3324Z" fill="#C3ECF9"/>
<path fill-rule="evenodd" clip-rule="evenodd" d="M119.332 64.749C119.332 64.749 126.412 63.1507 126.92 66.4574C127.428 69.7641 119.332 64.749 119.332 64.749Z" fill="#C3ECF9"/>
<g filter="url(#filter1_f_1166_12753)">
<path d="M16.7006 57.559C16.6369 55.3508 18.3755 53.5099 20.5837 53.4474L76.3548 51.8669C77.4608 51.8356 78.5306 52.2637 79.3098 53.0496L82.2305 55.9951C83.7391 57.5165 83.782 59.9556 82.3278 61.5276L79.6293 64.4449C78.8993 65.2341 77.8823 65.696 76.8075 65.7264L20.9833 67.3084C18.775 67.3709 16.9333 65.6316 16.8696 63.4233L16.7006 57.559Z" fill="#294F59" fill-opacity="0.5"/>
</g>
<path d="M16.7188 43.4412C16.8553 41.2363 18.7536 39.5577 20.9586 39.6919L76.6449 43.0814C77.9371 43.1601 79.1107 43.8593 79.7945 44.9578L83.249 50.5077C84.1653 51.9797 84.0275 53.8754 82.9079 55.2017L78.8674 59.9879C78.0514 60.9546 76.8266 61.479 75.5645 61.4022L19.8244 58.0094C17.6194 57.8751 15.9425 55.9789 16.079 53.774L16.7188 43.4412Z" fill="#FF077E" stroke="#FF077E" stroke-width="2"/>
<path d="M21.7815 43.5926L21.1742 53.4018L26.6939 53.7378L26.8081 51.8934L23.6779 51.7028L24.1711 43.7381L21.7815 43.5926ZM37.7952 49.4624C37.9778 46.514 35.884 44.3108 33.0891 44.1406C30.3083 43.9714 27.9164 45.9016 27.7339 48.85C27.5513 51.7983 29.6862 54.0181 32.4671 54.1874C35.2479 54.3567 37.6127 52.4108 37.7952 49.4624ZM30.1793 48.9988C30.2875 47.2522 31.362 46.2095 32.955 46.3065C34.5201 46.4018 35.4719 47.5677 35.3637 49.3144C35.2573 51.0331 34.1671 52.1028 32.602 52.0076C31.009 51.9106 30.0729 50.7175 30.1793 48.9988ZM44.017 44.8339C41.0825 44.6552 38.9002 46.5982 38.7185 49.5326C38.5368 52.467 40.4778 54.647 43.4124 54.8256C45.9976 54.9829 47.7373 53.3917 48.345 51.7316L48.4826 49.5098L43.2842 49.1934L43.1752 50.954L46.2076 51.1386C45.7759 52.2204 44.9125 52.799 43.7247 52.7267C42.0059 52.6221 41.0375 51.4971 41.15 49.6806C41.2556 47.9759 42.3432 46.9481 43.8803 47.0416C44.7747 47.0961 45.4238 47.4862 45.7465 48.1651L48.3876 48.3259C47.9951 46.2822 46.3647 44.9768 44.017 44.8339ZM52.4249 55.304L54.8145 55.4495L55.4218 45.6403L53.0323 45.4948L52.4249 55.304ZM63.5397 46.1344L63.1634 52.2128L59.5431 45.8911L57.1535 45.7457L56.5462 55.5549L58.9358 55.7003L59.3104 49.6499L62.9324 55.9436L65.3219 56.0891L65.9293 46.2799L63.5397 46.1344ZM68.1071 52.7802L70.1333 52.9035L70.8272 46.2273L68.242 46.07L68.1071 52.7802ZM70.4246 55.2215C70.4705 54.4809 69.933 53.8731 69.0946 53.8221C68.2422 53.7702 67.6338 54.3082 67.5879 55.0488C67.5438 55.7615 68.0812 56.3692 68.9337 56.4211C69.7721 56.4722 70.3805 55.9341 70.4246 55.2215Z" fill="white"/>
</g>
<defs>
<filter id="filter0_d_1166_12753" x="56.8608" y="3.41547" width="65.7961" height="89.2464" filterUnits="userSpaceOnUse" color-interpolation-filters="sRGB">
<feFlood flood-opacity="0" result="BackgroundImageFix"/>
<feColorMatrix in="SourceAlpha" type="matrix" values="0 0 0 0 0 0 0 0 0 0 0 0 0 0 0 0 0 0 127 0" result="hardAlpha"/>
<feOffset dx="-1" dy="4"/>
<feGaussianBlur stdDeviation="2"/>
<feComposite in2="hardAlpha" operator="out"/>
<feColorMatrix type="matrix" values="0 0 0 0 0 0 0 0 0 0.0888379 0 0 0 0 0.233333 0 0 0 0.3 0"/>
<feBlend mode="normal" in2="BackgroundImageFix" result="effect1_dropShadow_1166_12753"/>
<feBlend mode="normal" in="SourceGraphic" in2="effect1_dropShadow_1166_12753" result="shape"/>
</filter>
<filter id="filter1_f_1166_12753" x="6.69891" y="41.8653" width="86.6919" height="35.4447" filterUnits="userSpaceOnUse" color-interpolation-filters="sRGB">
<feFlood flood-opacity="0" result="BackgroundImageFix"/>
<feBlend mode="normal" in="SourceGraphic" in2="BackgroundImageFix" result="shape"/>
<feGaussianBlur stdDeviation="5" result="effect1_foregroundBlur_1166_12753"/>
</filter>
<linearGradient id="paint0_linear_1166_12753" x1="130" y1="74.3224" x2="0.556295" y2="-0.956562" gradientUnits="userSpaceOnUse">
<stop stop-color="#DDFDFF"/>
<stop offset="0.609375" stop-color="white"/>
</linearGradient>
</defs>
</svg>
