<svg width="130" height="79" viewBox="0 0 130 79" fill="none" xmlns="http://www.w3.org/2000/svg">
<rect width="130" height="79" fill="url(#paint0_linear_1197_114)"/>
<mask id="mask0_1197_114" style="mask-type:alpha" maskUnits="userSpaceOnUse" x="0" y="0" width="130" height="79">
<rect width="130" height="79" fill="white"/>
</mask>
<g mask="url(#mask0_1197_114)">
<path fill-rule="evenodd" clip-rule="evenodd" d="M120.574 79.7049C118.352 77.1442 112.672 71.4886 114.593 66.6415C116.515 61.7945 129.73 58.0632 127.205 52.31C124.681 46.5569 112.936 54.3101 109.678 49.0486C106.42 43.7871 118.332 35.1499 114.005 30.1607C109.678 25.1714 95.9422 40.117 93.1973 40.7979C90.4524 41.4789 81.4411 46.0827 75.7524 43.4403C70.0636 40.7979 53.6684 28.686 50.8988 33.7345C48.1292 38.783 58.4127 46.9709 56.0673 51.4146C53.722 55.8582 42.8315 53.2307 42.8315 57.5532C42.8315 61.8756 53.6101 61.7509 53.073 66.6415C52.5358 71.5321 38.737 74.8807 41.6573 78.9539C44.5776 83.027 123.081 85.18 122.489 82.9945C121.897 80.809 122.796 82.2656 120.574 79.7049Z" fill="#C3ECF9"/>
<path fill-rule="evenodd" clip-rule="evenodd" d="M69.2036 81.5879C66.8389 80.3162 64.9983 76.6843 60.1229 77.7319C55.2474 78.7795 49.5637 79.5886 49.5637 75.7632C49.5637 71.9378 58.9116 69.7118 58.1207 66.1693C57.3298 62.6269 47.5079 61.8155 48.8013 58.5583C50.0947 55.3011 60.5791 57.05 61.5053 53.0996C62.4316 49.1492 55.5655 41.1267 58.8613 39.6845C62.157 38.2424 67.1929 42.0517 69.2036 43.9657C71.2142 45.8797 79.1913 49.7674 86.4322 46.3542C93.673 42.941 107.706 32.4754 109.343 35.8358C110.981 39.1963 102.086 45.5524 105.315 50.5497C108.544 55.547 120.563 49.9353 120.563 55.3011C120.563 60.667 108.79 61.45 108.79 67.459C108.79 73.468 119.681 79.3121 115.511 81.5879C111.342 83.8636 71.5682 82.8595 69.2036 81.5879Z" fill="#84D1E5"/>
<path fill-rule="evenodd" clip-rule="evenodd" d="M85.556 81.9893C76.8141 81.9893 60.0375 78.8594 60.9387 62.7813C61.8399 46.7033 78.5171 47.3896 86.9179 48.0958C95.3188 48.802 109.87 53.9934 107.105 66.8491C104.34 79.7049 94.2979 81.9893 85.556 81.9893Z" fill="#57C4D3"/>
<path fill-rule="evenodd" clip-rule="evenodd" d="M73.3606 74.805C71.9905 75.5326 59.9382 81.6422 57.1775 81.1397C54.4168 80.6373 56.5381 77.1289 59.0805 74.805C61.623 72.4811 66.6731 71.4075 67.8697 68.1468C69.0663 64.8862 74.7308 74.0774 73.3606 74.805Z" fill="#4D6374"/>
<path fill-rule="evenodd" clip-rule="evenodd" d="M96.4983 74.3093C101.331 75.0486 109.363 82.8096 112.691 81.9893C116.02 81.1691 113.61 78.2764 110.53 75.0486C107.45 71.8208 102.025 70.7113 102.025 67.4494C102.025 64.1876 91.666 73.5699 96.4983 74.3093Z" fill="#4D6374"/>
<path fill-rule="evenodd" clip-rule="evenodd" d="M64.7261 56.5034C64.7261 61.7796 67.2138 80.6571 85.5563 79.8546C103.899 79.0521 104.755 62.7947 104.755 58.2819C104.755 53.7691 64.7261 51.2272 64.7261 56.5034Z" fill="#A5BFBC"/>
<ellipse cx="69.1006" cy="30.5336" rx="2.94387" ry="2.91884" fill="black"/>
<ellipse rx="0.527646" ry="0.824435" transform="matrix(0.914828 0.403845 -0.409641 0.912247 67.5913 29.4858)" fill="white"/>
<ellipse cx="101.106" cy="30.3839" rx="2.94387" ry="2.91884" fill="black"/>
<ellipse rx="0.527913" ry="0.824014" transform="matrix(0.946368 -0.32309 0.328061 0.944657 102.917 29.3361)" fill="white"/>
<path fill-rule="evenodd" clip-rule="evenodd" d="M105.057 49.3594C103.85 57.4361 64.9673 55.5339 64.9673 47.8082C64.9673 40.0826 74.166 3.11842 85.0616 3.11842C95.9572 3.11842 106.263 41.2828 105.057 49.3594Z" fill="#537687"/>
<path fill-rule="evenodd" clip-rule="evenodd" d="M104 52.9519C102.794 61.0286 65.7222 59.1263 65.7222 51.4007C65.7222 43.675 74.166 6.71084 85.0616 6.71084C95.9572 6.71084 105.206 44.8752 104 52.9519Z" fill="#7890A0"/>
<path fill-rule="evenodd" clip-rule="evenodd" d="M64.7261 51.4146C64.7261 56.6908 63.6631 75.1883 85.5564 74.4065C107.45 73.6247 105.351 57.7298 105.351 51.9729C105.351 49.1471 104.755 28.8982 85.0616 28.8982C65.3684 28.8982 64.7261 48.7282 64.7261 51.4146Z" fill="#D7F1F3"/>
<path fill-rule="evenodd" clip-rule="evenodd" d="M64.7175 55.289C70.7316 55.4189 96.6597 55.5928 105.405 55.289C105.654 46.646 104.053 28.9248 85.2158 28.8981C66.3785 28.8715 64.1351 47.4187 64.7175 55.289Z" fill="#C4E9EB"/>
<ellipse cx="76.2718" cy="21.3284" rx="1.18687" ry="2.39495" fill="#4D6375"/>
<ellipse rx="1.29798" ry="2.39505" transform="matrix(0.997605 -0.0691662 0.0703517 0.997522 93.7842 21.3284)" fill="#4D6375"/>
<path fill-rule="evenodd" clip-rule="evenodd" d="M73.4995 28.9248C80.4394 24.8346 90.0538 24.8346 96.8605 28.9248C88.6775 25.8849 80.6884 26.3138 73.4995 28.9248Z" fill="#6D8393"/>
<path fill-rule="evenodd" clip-rule="evenodd" d="M74.874 26.2676C80.9286 22.6752 89.3164 22.6752 95.2547 26.2676C88.1157 23.5977 81.1458 23.9744 74.874 26.2676Z" fill="#6D8393"/>
<path fill-rule="evenodd" clip-rule="evenodd" d="M69.4814 53.2269C69.4814 56.3255 72.0446 64.3792 72.0446 64.3792L79.5826 68.5986H92.1747L98.0111 64.3792L100.623 56.611V48.6188L97.1951 40.7164L88.3374 36.4488L78.6607 37.5441L71.1925 42.3246L69.4814 49.791C69.4814 49.791 69.4814 50.1282 69.4814 53.2269Z" fill="#573238"/>
<path fill-rule="evenodd" clip-rule="evenodd" d="M70.9393 59.4377H73.4997L72.0446 62.6944L75.2678 61.7688L74.3454 65.3852L77.4993 62.6944V67.4494L79.9754 63.8287L81.1587 67.4494L83.2335 64.1963L84.5926 67.7766L86.3331 64.1963L88.1333 67.7766L89.3474 63.8287L92.1238 66.763L92.6353 62.6944L95.5841 65.3852L94.8517 61.4463L98.0111 62.6944L96.8607 59.4377H99.4117C99.4117 59.4377 98.7277 65.5562 94.8517 67.4494C90.9757 69.3427 78.6285 68.7901 76.487 67.7766C74.3454 66.763 70.7959 62.2795 70.3123 60.6049C69.8286 58.9302 70.9393 59.4377 70.9393 59.4377Z" fill="white"/>
<path fill-rule="evenodd" clip-rule="evenodd" d="M70.704 55.4189H68.4297C68.4297 55.4189 69.8421 65.3598 73.5732 67.4494C77.3042 69.5391 80.6042 70.2309 87.255 69.885C93.9059 69.5391 98.5437 67.6282 100.222 62.2228C101.901 56.8173 101.654 55.4189 101.654 55.4189H99.3632C99.3632 55.4189 99.1052 62.4747 96.0075 64.9621C92.9099 67.4494 87.2829 67.4494 84.317 67.4494C81.3511 67.4494 75.5369 67.6108 73.4999 64.0863C71.4628 60.5618 70.704 55.4189 70.704 55.4189Z" fill="#DB9B9C"/>
<path fill-rule="evenodd" clip-rule="evenodd" d="M69.8286 51.0109L73.4997 50.2481L71.0068 47.0235H74.3341L72.4448 42.7994L76.7237 44.9288L75.788 40.1102L79.8128 43.4901L80.2292 38.2424L83.3982 42.7994L85.0574 37.602L86.603 42.4684L89.9597 38.2424V43.4901L94.2802 40.1102L93.5169 44.9288L97.6 43.1675L95.5887 47.0235H99.0465L96.8607 50.2481L99.7041 51.0109C99.7041 51.0109 101.472 48.234 100.039 45.5167C98.6068 42.7994 95.4584 38.4484 91.2699 37.602C87.0814 36.7556 79.8744 36.3746 76.7237 38.2424C73.573 40.1102 69.8286 43.1802 69.8286 45.5167C69.8286 47.8533 69.8286 51.0109 69.8286 51.0109Z" fill="white"/>
<path fill-rule="evenodd" clip-rule="evenodd" d="M99.3629 55.4189H101.685C101.685 55.4189 102.037 46.1714 100.524 43.4512C99.0113 40.7311 95.2137 35.6146 85.1801 35.6146C75.1465 35.6146 70.3694 40.8282 69.2516 44.5735C68.1338 48.3187 68.4294 55.4189 68.4294 55.4189H70.7038C70.7038 55.4189 69.9138 44.2516 74.4495 41.247C76.7566 39.7186 80.2401 38.0478 84.2874 37.8984C88.1968 37.7542 92.6655 39.0729 95.2546 40.8851C100.524 44.5735 99.3629 55.4189 99.3629 55.4189Z" fill="#CF767A"/>
<path fill-rule="evenodd" clip-rule="evenodd" d="M51.6153 47.8082C51.6153 47.8082 43.4285 39.6601 41.7133 42.5507C39.9982 45.4412 51.6153 47.8082 51.6153 47.8082Z" fill="#C3ECF9"/>
<path fill-rule="evenodd" clip-rule="evenodd" d="M47.4667 50.6745C47.4667 50.6745 40.4571 48.092 40.9153 50.6745C41.3736 53.2569 47.4667 50.6745 47.4667 50.6745Z" fill="#C3ECF9"/>
<path fill-rule="evenodd" clip-rule="evenodd" d="M63.5867 32.7467C63.5867 32.7467 60.2912 22.7201 57.4362 25.4144C54.5813 28.1087 63.5867 32.7467 63.5867 32.7467Z" fill="#C3ECF9"/>
<path fill-rule="evenodd" clip-rule="evenodd" d="M108.831 25.8571C108.831 25.8571 110.575 20.2797 113.113 21.1859C115.652 22.0922 108.831 25.8571 108.831 25.8571Z" fill="#C3ECF9"/>
<path fill-rule="evenodd" clip-rule="evenodd" d="M116.454 41.2063C116.454 41.2063 118.205 36.2235 121.103 37.0158C124.001 37.8081 116.454 41.2063 116.454 41.2063Z" fill="#C3ECF9"/>
<path fill-rule="evenodd" clip-rule="evenodd" d="M114.598 46.0873C114.598 46.0873 121.907 40.9725 123.654 44.2606C125.4 47.5486 114.598 46.0873 114.598 46.0873Z" fill="#C3ECF9"/>
<path fill-rule="evenodd" clip-rule="evenodd" d="M117.935 65.5917C117.935 65.5917 123.012 63.016 124.253 65.2576C125.494 67.4992 117.935 65.5917 117.935 65.5917Z" fill="#C3ECF9"/>
<path fill-rule="evenodd" clip-rule="evenodd" d="M115.619 69.7155C115.619 69.7155 122.867 69.1815 122.867 72.5201C122.867 75.8587 115.619 69.7155 115.619 69.7155Z" fill="#C3ECF9"/>
<g filter="url(#filter0_f_1197_114)">
<path d="M21.1745 48.3168C21.3141 46.1121 23.2146 44.4361 25.4195 44.5733L77.4754 47.8133C78.621 47.8846 79.6803 48.4446 80.3837 49.3508L82.8593 52.54C84.1159 54.1587 83.9438 56.4667 82.4609 57.8842L79.6681 60.5538C78.8604 61.3258 77.7672 61.7254 76.6527 61.656L24.5433 58.4127C22.3384 58.2755 20.6642 56.377 20.8038 54.1722L21.1745 48.3168Z" fill="#294F59" fill-opacity="0.3"/>
</g>
<path d="M20.5989 33.2374C21.0743 31.3638 22.9802 30.2242 24.8557 30.6921L78.9565 44.1892C80.0561 44.4636 80.9527 45.2528 81.3624 46.3072L83.7281 52.3951C84.2764 53.8061 83.8504 55.4124 82.6731 56.3732L77.811 60.3415C76.9518 61.0427 75.8123 61.2982 74.7382 61.0302L20.5852 47.5201C18.7097 47.0522 17.5747 45.154 18.0502 43.2804L20.5989 33.2374Z" fill="#904FE2" stroke="#904FE2"/>
<path d="M25.0624 34.1881L22.6449 43.7141L28.0104 45.0527L28.465 43.2615L25.4223 42.5024L27.3852 34.7676L25.0624 34.1881ZM39.7203 42.8806C40.4469 40.0174 38.7968 37.4702 36.0801 36.7925C33.3769 36.1181 30.6667 37.5774 29.9401 40.4407C29.2134 43.3039 30.9009 45.8748 33.604 46.5492C36.3072 47.2236 38.9937 45.7439 39.7203 42.8806ZM32.3172 41.0337C32.7477 39.3375 33.9978 38.5095 35.5463 38.8958C37.0677 39.2753 37.7872 40.5948 37.3567 42.291C36.9332 43.9601 35.6626 44.8118 34.1413 44.4323C32.5927 44.046 31.8936 42.7028 32.3172 41.0337ZM46.6974 39.4701C43.8448 38.7585 41.3384 40.2687 40.6152 43.1183C39.892 45.968 41.3962 48.4643 44.2487 49.176C46.7617 49.8029 48.7677 48.5575 49.6734 47.0375L50.2209 44.8799L45.1678 43.6192L44.7339 45.329L47.6816 46.0644C47.0563 47.0483 46.0999 47.459 44.9453 47.171C43.2745 46.7542 42.5311 45.4721 42.9787 43.708C43.3989 42.0525 44.6591 41.2414 46.1533 41.6142C47.0226 41.8311 47.5886 42.333 47.7799 43.0589L50.3472 43.6994C50.3405 41.6199 48.9795 40.0395 46.6974 39.4701ZM53.0224 51.2927L55.3452 51.8722L57.7627 42.3461L55.4399 41.7667L53.0224 51.2927ZM65.6538 44.3148L64.1557 50.2177L61.7688 43.3456L59.446 42.7661L57.0285 52.2921L59.3513 52.8716L60.8425 46.9959L63.2363 53.8408L65.5591 54.4203L67.9766 44.8943L65.6538 44.3148ZM68.9119 51.6784L70.8815 52.1698L72.8027 45.7376L70.2897 45.1107L68.9119 51.6784ZM70.7378 54.5003C70.9203 53.7811 70.5046 53.0858 69.6896 52.8825C68.861 52.6757 68.1629 53.0932 67.9803 53.8124C67.8047 54.5044 68.2204 55.1997 69.049 55.4064C69.8641 55.6098 70.5622 55.1924 70.7378 54.5003Z" fill="white"/>
</g>
<defs>
<filter id="filter0_f_1197_114" x="10.7954" y="34.5654" width="82.9033" height="37.0983" filterUnits="userSpaceOnUse" color-interpolation-filters="sRGB">
<feFlood flood-opacity="0" result="BackgroundImageFix"/>
<feBlend mode="normal" in="SourceGraphic" in2="BackgroundImageFix" result="shape"/>
<feGaussianBlur stdDeviation="5" result="effect1_foregroundBlur_1197_114"/>
</filter>
<linearGradient id="paint0_linear_1197_114" x1="130" y1="74.3224" x2="0.556295" y2="-0.956562" gradientUnits="userSpaceOnUse">
<stop stop-color="#DDFDFF"/>
<stop offset="0.609375" stop-color="white"/>
</linearGradient>
</defs>
</svg>
